<svg xmlns="http://www.w3.org/2000/svg" xmlns:xlink="http://www.w3.org/1999/xlink" viewBox="0 0 835.96 389.29"><defs><style>.cls-1{fill-rule:evenodd;fill:url(#linear-gradient);}</style><linearGradient id="linear-gradient" x1="207.96" y1="-3.9" x2="34.19" y2="315.79" gradientUnits="userSpaceOnUse"><stop offset="0" stop-color="#2bb9ff"/><stop offset="0" stop-color="#2ab5fa"/><stop offset="1" stop-color="#1d4175"/></linearGradient></defs><title>logo-origin_2</title><g id="Camada_2" data-name="Camada 2"><g id="Camada_1-2" data-name="Camada 1"><path d="M317.54,64.65l2.56,17.52c10.81-18.76,25.32-21.52,39.55-21.52,14.51,0,28.45,6.15,36.14,14.45l-15.65,32.59c-7.12-6.46-13.66-9.84-25-9.84-18.22,0-35,10.46-35,38.43v79.95H285.38V64.65Z"/><path d="M446.71,21.91c0,29.21-41,29.21-41,0S446.71-7.3,446.71,21.91ZM408.87,64v152.2h34.72V64Z"/><path d="M585,49.27l25.61,20.91L595,91.7c10.81,13.22,14.8,28.29,14.8,44.89,0,18.76-6.55,45.2-29.59,56.57,23.33,12.61,29,30.75,29,50.12,0,41.82-29.59,67.64-70.28,67.64s-71.14-26.75-71.14-67.64H502.2c0,19.68,16.79,32.59,36.71,32.59s35.56-11.68,35.56-32.59-18.21-30.44-35.56-30.44c-43.82,0-71.14-28.9-71.14-76.25s31.87-76.86,71.14-76.86c11.09,0,22.47,1.53,32.15,8.6Zm-82.8,87.32c0,26.44,16.5,42.12,36.71,42.12,19.91,0,36.42-16,36.42-42.12s-16.51-42.74-36.42-42.74C518.7,93.85,502.2,110.15,502.2,136.59Z"/><path d="M669.79,21.91c0,29.21-41,29.21-41,0S669.79-7.3,669.79,21.91ZM632,64v152.2h34.71V64Z"/><path d="M801.25,216.23V136.9c0-23.06-11.67-40.59-33.86-40.59-21.34,0-35.86,19.37-35.86,42.43v77.49H697.1V64.34h31l2.28,20.6c14.22-15.07,28.45-22.75,46.09-22.75,33,0,59.47,26.74,59.47,74.4v79.64Z"/><path d="M514.89,377.72l-3.51-9.54H497.94l-3.43,9.54h-6.06l13.15-34.5h6.25L521,377.72Zm-5-14.38-3.3-9.36c-.24-.63-.57-1.61-1-3s-.72-2.33-.88-3a53.71,53.71,0,0,1-1.9,6.32l-3.17,9Z"/><path d="M547.48,351.73v3l-4.54.82a7,7,0,0,1,1,2,8.37,8.37,0,0,1-2.42,8.86c-1.9,1.54-4.5,2.31-7.82,2.31a13.28,13.28,0,0,1-2.3-.19,3.1,3.1,0,0,0-1.83,2.58,1.42,1.42,0,0,0,.85,1.34,7.51,7.51,0,0,0,3.14.45h4.64q4.39,0,6.68,1.83a6.41,6.41,0,0,1,2.28,5.29,7.65,7.65,0,0,1-3.72,6.82q-3.74,2.4-10.77,2.4c-3.62,0-6.39-.63-8.29-1.89a6,6,0,0,1-2.86-5.35,5.58,5.58,0,0,1,1.55-4,8.32,8.32,0,0,1,4.34-2.27,4.25,4.25,0,0,1-1.87-1.52,3.87,3.87,0,0,1,.11-4.67,9.86,9.86,0,0,1,2.5-2,7.32,7.32,0,0,1-3.35-2.84,9.07,9.07,0,0,1,1.44-11.15q2.73-2.32,7.78-2.33a19.63,19.63,0,0,1,2.36.16,14.82,14.82,0,0,1,1.87.32Zm-20.89,30a3,3,0,0,0,1.65,2.75,9.14,9.14,0,0,0,4.63,1c3.07,0,5.37-.43,6.87-1.29a3.88,3.88,0,0,0,2.26-3.44,2.56,2.56,0,0,0-1.24-2.41,10.25,10.25,0,0,0-4.6-.71h-4.28a6.15,6.15,0,0,0-3.86,1.11A3.64,3.64,0,0,0,526.59,381.76ZM529,360.14a5.15,5.15,0,0,0,1.29,3.76,4.93,4.93,0,0,0,3.69,1.32q4.9,0,4.9-5.13a5.72,5.72,0,0,0-1.21-3.91A4.66,4.66,0,0,0,534,354.8a4.83,4.83,0,0,0-3.72,1.37A5.65,5.65,0,0,0,529,360.14Z"/><path d="M564,378.19q-6.21,0-9.7-3.54t-3.5-9.74q0-6.37,3.25-10a11.32,11.32,0,0,1,8.92-3.65,11.1,11.1,0,0,1,8.31,3.13c2,2.09,3.05,4.95,3.05,8.6v3H556.64a8.46,8.46,0,0,0,2.09,5.82,7.39,7.39,0,0,0,5.55,2,21.64,21.64,0,0,0,4.39-.43,24.43,24.43,0,0,0,4.36-1.45v4.49a17.44,17.44,0,0,1-4.18,1.36A25.89,25.89,0,0,1,564,378.19Zm4.49-29.64a26.8,26.8,0,0,1-5.48-4.23,30.51,30.51,0,0,1-5.4,4.23h-3.8V348a46.08,46.08,0,0,0,6.1-7.12h6.25a38.87,38.87,0,0,0,6.16,7.12v.59ZM563,355.44a5.72,5.72,0,0,0-4.32,1.67,7.8,7.8,0,0,0-1.93,4.86H568.8a7.09,7.09,0,0,0-1.58-4.87A5.48,5.48,0,0,0,563,355.44Z"/><path d="M604.16,377.72h-5.67v-16a6.91,6.91,0,0,0-1.24-4.49,4.84,4.84,0,0,0-3.93-1.48q-3.59,0-5.24,2.07t-1.66,6.93v13h-5.65v-26h4.42l.8,3.4h.29a7.78,7.78,0,0,1,3.41-2.86,11.55,11.55,0,0,1,4.9-1q9.57,0,9.57,9.52Z"/><path d="M622.74,378.19q-6,0-9.17-3.44t-3.14-9.89q0-6.56,3.28-10.08t9.49-3.53a18.12,18.12,0,0,1,7.57,1.53l-1.71,4.45a17.46,17.46,0,0,0-5.91-1.37q-6.9,0-6.9,9,0,4.37,1.72,6.57a6,6,0,0,0,5,2.19,14.71,14.71,0,0,0,7.14-1.83v4.82a11.32,11.32,0,0,1-3.23,1.24A19.25,19.25,0,0,1,622.74,378.19Z"/><path d="M636.05,344.84a3,3,0,0,1,.83-2.28,3.31,3.31,0,0,1,2.37-.8,3.2,3.2,0,0,1,2.32.8,3,3,0,0,1,.83,2.28,3,3,0,0,1-.83,2.22,3.17,3.17,0,0,1-2.32.81,3.28,3.28,0,0,1-2.37-.81A3,3,0,0,1,636.05,344.84Zm6,32.88h-5.65v-26H642Z"/><path d="M666.75,377.72l-1.13-3.62h-.19a11,11,0,0,1-3.87,3.23,12.54,12.54,0,0,1-5,.86,8.59,8.59,0,0,1-6.12-2.07,7.63,7.63,0,0,1-2.2-5.85,6.82,6.82,0,0,1,3-6.06c2-1.37,5.14-2.11,9.3-2.24l4.6-.14v-1.38a5.19,5.19,0,0,0-1.19-3.73,5,5,0,0,0-3.69-1.23,13.05,13.05,0,0,0-3.92.58,32.49,32.49,0,0,0-3.61,1.39L651,353.51a20.06,20.06,0,0,1,4.73-1.68,22.54,22.54,0,0,1,4.86-.58c3.38,0,5.93.73,7.65,2.17s2.59,3.7,2.59,6.79v17.51ZM658.34,374a7.11,7.11,0,0,0,4.94-1.68,6,6,0,0,0,1.86-4.71v-2.26l-3.41.14c-2.66.1-4.6.53-5.81,1.31a3.92,3.92,0,0,0-1.81,3.56,3.45,3.45,0,0,0,1,2.69A4.66,4.66,0,0,0,658.34,374Z"/><path d="M720.64,360.21q0,8.51-4.83,13t-13.92,4.5h-9.83V343.36h10.86q8.4,0,13.05,4.42T720.64,360.21Zm-6.06.19q0-12.34-11.8-12.34h-5V373h4.09Q714.58,373,714.58,360.4Z"/><path d="M727.25,344.84a3,3,0,0,1,.83-2.28,3.27,3.27,0,0,1,2.36-.8,3.2,3.2,0,0,1,2.32.8,3,3,0,0,1,.83,2.28,2.93,2.93,0,0,1-.83,2.22,3.17,3.17,0,0,1-2.32.81,3.23,3.23,0,0,1-2.36-.81A2.93,2.93,0,0,1,727.25,344.84Zm6,32.88h-5.65v-26h5.65Z"/><path d="M763.76,351.73v3l-4.54.82a7.22,7.22,0,0,1,1,2,7.91,7.91,0,0,1,.41,2.54,7.7,7.7,0,0,1-2.84,6.32q-2.84,2.31-7.81,2.31a13.49,13.49,0,0,1-2.31-.19,3.09,3.09,0,0,0-1.82,2.58,1.42,1.42,0,0,0,.85,1.34,7.48,7.48,0,0,0,3.14.45h4.63c2.94,0,5.16.61,6.69,1.83a6.41,6.41,0,0,1,2.28,5.29,7.64,7.64,0,0,1-3.73,6.82q-3.72,2.4-10.76,2.4c-3.63,0-6.39-.63-8.3-1.89a6,6,0,0,1-2.86-5.35,5.63,5.63,0,0,1,1.55-4,8.36,8.36,0,0,1,4.34-2.27,4.28,4.28,0,0,1-1.86-1.52,3.87,3.87,0,0,1,.11-4.67,9.68,9.68,0,0,1,2.5-2,7.39,7.39,0,0,1-3.36-2.84,9.1,9.1,0,0,1,1.45-11.15q2.73-2.32,7.77-2.33a19.79,19.79,0,0,1,2.37.16,14.59,14.59,0,0,1,1.86.32Zm-20.89,30a3,3,0,0,0,1.65,2.75,9.13,9.13,0,0,0,4.62,1q4.62,0,6.88-1.29a3.9,3.9,0,0,0,2.26-3.44,2.56,2.56,0,0,0-1.24-2.41,10.28,10.28,0,0,0-4.6-.71h-4.28a6.13,6.13,0,0,0-3.86,1.11A3.64,3.64,0,0,0,742.87,381.76Zm2.43-21.62a5.15,5.15,0,0,0,1.29,3.76,4.89,4.89,0,0,0,3.68,1.32q4.9,0,4.91-5.13a5.72,5.72,0,0,0-1.22-3.91,4.66,4.66,0,0,0-3.69-1.38,4.81,4.81,0,0,0-3.71,1.37A5.65,5.65,0,0,0,745.3,360.14Z"/><path d="M768.35,344.84a3,3,0,0,1,.83-2.28,3.28,3.28,0,0,1,2.37-.8,3.24,3.24,0,0,1,2.32.8,3,3,0,0,1,.82,2.28,3,3,0,0,1-.82,2.22,3.2,3.2,0,0,1-2.32.81,3.24,3.24,0,0,1-2.37-.81A3,3,0,0,1,768.35,344.84Zm6,32.88h-5.64v-26h5.64Z"/><path d="M792.31,373.73a14.17,14.17,0,0,0,4.14-.64v4.16a11.43,11.43,0,0,1-2.42.67,17,17,0,0,1-3.06.27q-8,0-8-8.27v-14h-3.63v-2.45l3.89-2,1.93-5.5h3.48v5.79h7.57v4.18h-7.57v13.91a3.84,3.84,0,0,0,1,2.95A3.76,3.76,0,0,0,792.31,373.73Z"/><path d="M818.39,377.72l-1.13-3.62h-.19a10.8,10.8,0,0,1-3.87,3.23,12.51,12.51,0,0,1-5,.86,8.59,8.59,0,0,1-6.12-2.07,7.67,7.67,0,0,1-2.2-5.85,6.81,6.81,0,0,1,3.06-6.06c2-1.37,5.13-2.11,9.3-2.24l4.59-.14v-1.38a5.19,5.19,0,0,0-1.19-3.73,4.92,4.92,0,0,0-3.69-1.23,13.1,13.1,0,0,0-3.92.58,31.59,31.59,0,0,0-3.6,1.39l-1.83-3.95a20,20,0,0,1,4.74-1.68,22.46,22.46,0,0,1,4.85-.58c3.38,0,5.93.73,7.66,2.17s2.58,3.7,2.58,6.79v17.51ZM810,374a7.1,7.1,0,0,0,4.94-1.68,6,6,0,0,0,1.86-4.71v-2.26l-3.41.14c-2.66.1-4.6.53-5.81,1.31a3.92,3.92,0,0,0-1.81,3.56,3.42,3.42,0,0,0,1.06,2.69A4.62,4.62,0,0,0,810,374Z"/><path d="M836,377.72h-5.65V341.15H836Z"/><path class="cls-1" d="M131.5,268.26A131.55,131.55,0,0,0,253.32,87.18c-.08-.16-.17-.31-.24-.47-11-26.53-36.68-45.13-66.62-45.13a71.74,71.74,0,0,0-58.65,30.69c1.22-.07,2.45-.11,3.69-.11a64.61,64.61,0,1,1-64.61,64.61h-.25A118.66,118.66,0,0,1,185.27,20.21c2.56,0,5.1.09,7.63.25a131.51,131.51,0,1,0-61.4,247.8Z"/></g></g></svg>