<svg xmlns="http://www.w3.org/2000/svg" viewBox="0 0 263 263"><defs><style>.cls-1{fill:#fff;fill-rule:evenodd;}</style></defs><title>logo-branca-2</title><g id="Camada_2" data-name="Camada 2"><g id="Camada_1-2" data-name="Camada 1"><path class="cls-1" d="M131.5,263A131.56,131.56,0,0,0,253.32,81.91c-.08-.16-.17-.31-.24-.47-11-26.52-36.68-45.13-66.62-45.13A71.74,71.74,0,0,0,127.81,67c1.22-.06,2.45-.11,3.69-.11A64.61,64.61,0,1,1,66.89,131.5h-.25A118.66,118.66,0,0,1,185.27,14.94c2.56,0,5.1.1,7.63.25A131.51,131.51,0,1,0,131.5,263Z"/></g></g></svg>