<svg xmlns="http://www.w3.org/2000/svg" viewBox="0 0 835.96 310.92"><defs><style>.cls-1,.cls-2{fill:#fff;}.cls-2{fill-rule:evenodd;}</style></defs><title>logo-branca</title><g id="Camada_2" data-name="Camada 2"><g id="Camada_1-2" data-name="Camada 1"><path class="cls-1" d="M317.54,64.65l2.56,17.52c10.81-18.76,25.32-21.52,39.55-21.52,14.51,0,28.45,6.15,36.14,14.45l-15.65,32.59c-7.12-6.46-13.66-9.84-25-9.84-18.22,0-35,10.46-35,38.43v79.95H285.38V64.65Z"/><path class="cls-1" d="M446.71,21.91c0,29.21-41,29.21-41,0S446.71-7.3,446.71,21.91ZM408.87,64v152.2h34.72V64Z"/><path class="cls-1" d="M585,49.27l25.61,20.91L595,91.7c10.81,13.22,14.8,28.29,14.8,44.89,0,18.76-6.55,45.2-29.59,56.57,23.33,12.61,29,30.75,29,50.12,0,41.82-29.59,67.64-70.28,67.64s-71.14-26.75-71.14-67.64H502.2c0,19.68,16.79,32.59,36.71,32.59s35.56-11.68,35.56-32.59-18.21-30.44-35.56-30.44c-43.82,0-71.14-28.9-71.14-76.25s31.87-76.86,71.14-76.86c11.09,0,22.47,1.53,32.15,8.6Zm-82.8,87.32c0,26.44,16.5,42.12,36.71,42.12,19.91,0,36.42-16,36.42-42.12s-16.51-42.74-36.42-42.74C518.7,93.85,502.2,110.15,502.2,136.59Z"/><path class="cls-1" d="M669.79,21.91c0,29.21-41,29.21-41,0S669.79-7.3,669.79,21.91ZM632,64v152.2h34.71V64Z"/><path class="cls-1" d="M801.25,216.23V136.9c0-23.06-11.67-40.59-33.86-40.59-21.34,0-35.86,19.37-35.86,42.43v77.49H697.1V64.34h31l2.28,20.6c14.22-15.07,28.45-22.75,46.09-22.75,33,0,59.47,26.74,59.47,74.4v79.64Z"/><path class="cls-2" d="M131.5,268.26A131.55,131.55,0,0,0,253.32,87.18c-.08-.16-.17-.31-.24-.47-11-26.53-36.68-45.13-66.62-45.13a71.74,71.74,0,0,0-58.65,30.69c1.22-.07,2.45-.11,3.69-.11a64.61,64.61,0,1,1-64.61,64.61h-.25A118.66,118.66,0,0,1,185.27,20.21c2.56,0,5.1.09,7.63.25a131.51,131.51,0,1,0-61.4,247.8Z"/></g></g></svg>